Coordinates
version=1
nRows=26
nColumns=33
inDegrees=yes

Units are S.I. units (second, meters, Newtons, ...)
Angles are in degrees.

endheader
time	ground_thorax_rot_x	ground_thorax_rot_y	ground_thorax_rot_z	ground_thorax_tx	ground_thorax_ty	ground_thorax_tz	clav_prot_r	clav_elev_r	scapula_abduction_r	scapula_elevation_r	scapula_upward_rot_r	scapula_winging_r	shoulder_elv_r	plane_of_elev_r	axial_rot_r	elbow_flexion_r	pro_sup_r	wrist_flex_r	wrist_dev_r	clav_prot_l	clav_elev_l	scapula_abduction_l	scapula_elevation_l	scapula_upward_rot_l	scapula_winging_l	shoulder_elv_l	plane_of_elev_l	axial_rot_l	elbow_flexion_l	pro_sup_l	wrist_flex_l	wrist_dev_l	
5.0800	-5.299260	2.700712	10.537155	-0.095509	1.027102	0.008727	17.116374	-10.216820	44.527084	-11.541584	25.721561	-14.410101	-5.218380	-51.876206	119.344512	-35.917487	-131.798911	-0.656355	3.133809	26.910229	-10.819469	-40.616001	-5.965931	-24.823809	14.493402	59.747976	2.175980	13.987738	13.708691	22.810423	12.795492	-8.653482	
5.0900	-5.068865	2.792821	10.477733	-0.095326	1.027081	0.008815	17.050112	-9.967861	44.638646	-11.406134	26.013143	-14.557448	-5.708777	-52.301592	118.965988	-35.866119	-133.354454	0.475550	2.424893	26.422296	-11.046792	-39.795330	-5.707475	-24.610498	13.933179	59.796847	1.669079	13.682446	14.244410	22.283605	12.862336	-9.079416	
5.1000	-4.821207	2.836051	10.427084	-0.095028	1.027082	0.008911	16.992195	-9.745056	44.739181	-11.284075	26.271642	-14.689525	-6.240059	-52.760326	118.590535	-35.911929	-135.254412	1.674262	1.667236	25.839609	-11.288886	-38.815787	-5.448349	-24.411175	13.270659	59.864152	1.092686	13.352370	14.878230	21.716164	12.971614	-9.536338	
5.1100	-4.667853	2.864164	10.398181	-0.094943	1.026969	0.008935	16.998261	-9.675115	44.733188	-11.217774	26.242688	-14.730702	-6.544254	-53.096751	118.387111	-36.204163	-136.840746	2.359990	1.195939	25.340636	-11.372405	-37.988009	-5.377110	-24.345043	12.740445	59.933112	0.711183	13.217663	15.566815	21.354673	13.094146	-9.842554	
5.1200	-4.556545	2.873407	10.393386	-0.094970	1.026807	0.008933	17.031243	-9.691603	44.639195	-11.178067	26.031383	-14.709453	-6.744523	-53.372938	118.277268	-36.679564	-138.343142	2.788481	0.877700	24.868210	-11.386098	-37.208176	-5.403019	-24.368052	12.256183	60.009677	0.410449	13.199787	16.326926	21.116610	13.234818	-10.080054	
5.1300	-4.478499	2.879251	10.416842	-0.095116	1.026591	0.008928	17.067350	-9.759112	44.437392	-11.141166	25.659754	-14.631611	-6.879062	-53.581272	118.225158	-37.324305	-139.655346	3.016167	0.700046	24.452114	-11.344485	-36.523345	-5.513386	-24.482132	11.842712	60.082232	0.178228	13.316236	17.174131	21.015730	13.373507	-10.273666	
5.1400	-4.413266	2.885689	10.461519	-0.095346	1.026375	0.008939	17.087499	-9.855197	44.142742	-11.103736	25.190466	-14.506287	-7.001374	-53.756702	118.188739	-38.088990	-140.909409	3.168027	0.603022	24.066033	-11.293453	-35.885686	-5.657729	-24.657103	11.459487	60.165348	-0.035966	13.508230	18.091218	21.023787	13.522578	-10.460640	
5.1500	-4.348904	2.899082	10.523173	-0.095619	1.026204	0.008973	17.063170	-9.968242	43.747247	-11.069169	24.675145	-14.326590	-7.161199	-53.927905	118.135756	-38.932827	-142.210713	3.349733	0.540860	23.699684	-11.262414	-35.275293	-5.805525	-24.878398	11.087045	60.270480	-0.269239	13.747873	19.082758	21.164455	13.700283	-10.682912	
5.1600	-4.289286	2.919016	10.586610	-0.095941	1.026082	0.009035	17.001783	-10.095204	43.272780	-11.037871	24.128230	-14.103034	-7.349593	-54.090533	118.064804	-39.844316	-143.540332	3.551245	0.504923	23.354810	-11.239108	-34.697777	-5.960221	-25.130949	10.732800	60.395911	-0.512149	14.020350	20.127383	21.414597	13.901479	-10.931202	
5.1700	-4.237168	2.936347	10.656354	-0.096290	1.026006	0.009119	16.910914	-10.243787	42.728718	-11.014890	23.546373	-13.836234	-7.572565	-54.250799	117.974165	-40.829084	-144.926287	3.764580	0.483837	23.022120	-11.209790	-34.140062	-6.134952	-25.416846	10.391984	60.534730	-0.770483	14.313887	21.235036	21.756812	14.128470	-11.202678	
5.1800	-4.188891	2.939812	10.717657	-0.096658	1.025960	0.009234	16.809837	-10.394997	42.159069	-10.988233	22.948419	-13.556513	-7.828044	-54.406868	117.864836	-41.885110	-146.338338	3.980263	0.458526	22.688953	-11.161571	-33.584128	-6.331847	-25.714943	10.057018	60.675127	-1.045443	14.610187	22.389952	22.097175	14.358513	-11.477927	
5.1900	-4.148291	2.929712	10.774645	-0.097032	1.025969	0.009360	16.691029	-10.574827	41.553267	-10.980905	22.337913	-13.242894	-8.121097	-54.582104	117.738118	-43.004379	-147.863694	4.188808	0.438762	22.349098	-11.096652	-33.019346	-6.550922	-26.028593	9.720742	60.825783	-1.341383	14.899638	23.587893	22.446843	14.612046	-11.750182	
5.2000	-4.105711	2.910474	10.817676	-0.097423	1.025981	0.009521	16.563267	-10.725888	40.943932	-10.950299	21.738228	-12.941061	-8.457397	-54.753442	117.583395	-44.176740	-149.291588	4.394195	0.415325	22.028751	-11.003762	-32.491059	-6.793740	-26.342842	9.413381	60.954696	-1.650158	15.194462	24.818226	22.712847	14.835640	-12.007377	
5.2100	-4.058995	2.883166	10.862734	-0.097831	1.026005	0.009699	16.428043	-10.862161	40.327256	-10.905992	21.141319	-12.641956	-8.837511	-54.938737	117.398479	-45.392847	-150.658624	4.594736	0.400723	21.722758	-10.892501	-31.989394	-7.056670	-26.666846	9.125560	61.064187	-1.981167	15.472399	26.075901	22.886809	15.041490	-12.245247	
5.2200	-4.002967	2.847099	10.905699	-0.098267	1.026010	0.009907	16.293931	-10.949904	39.726097	-10.822112	20.558581	-12.374585	-9.259270	-55.124387	117.190088	-46.646191	-151.844442	4.799260	0.393582	21.442187	-10.760903	-31.533181	-7.337765	-26.993727	8.868366	61.143667	-2.335173	15.733130	27.349648	22.914143	15.202298	-12.458900	
5.2300	-3.952468	2.800853	10.960020	-0.098712	1.026075	0.010106	16.151357	-11.075868	39.105307	-10.765979	19.966174	-12.075437	-9.723764	-55.359681	116.955551	-47.940902	-153.135574	4.993272	0.423045	21.157313	-10.630432	-31.070505	-7.626695	-27.337983	8.605234	61.239953	-2.736845	15.926676	28.636226	22.822976	15.390902	-12.635323	
5.2400	-3.899931	2.746474	11.020129	-0.099183	1.026152	0.010313	16.010679	-11.193327	38.490394	-10.700370	19.374248	-11.782889	-10.223344	-55.622614	116.708537	-49.267120	-154.384266	5.188345	0.463599	20.884627	-10.494045	-30.629950	-7.923728	-27.688736	8.354920	61.331867	-3.178963	16.059452	29.926400	22.572586	15.568225	-12.775471	
5.2500	-3.845900	2.685406	11.107708	-0.099686	1.026253	0.010516	15.872556	-11.319441	37.870842	-10.635219	18.766433	-11.484097	-10.759881	-55.928294	116.447928	-50.614668	-155.640913	5.383384	0.505981	20.619398	-10.359372	-30.203034	-8.227418	-28.056455	8.109874	61.418942	-3.672134	16.112722	31.222205	22.176068	15.744030	-12.879756	
5.2600	-3.789967	2.620944	11.203837	-0.100224	1.026354	0.010725	15.741125	-11.434557	37.259398	-10.555738	18.150334	-11.195438	-11.319019	-56.259111	116.185766	-51.981435	-156.844600	5.592577	0.519358	20.369805	-10.223101	-29.803844	-8.533938	-28.427764	7.879722	61.501208	-4.210257	16.094635	32.523554	21.627012	15.895180	-12.951440	
5.2700	-3.737192	2.553936	11.302645	-0.100773	1.026489	0.010917	15.603267	-11.571877	36.634936	-10.491357	17.528314	-10.887389	-11.897273	-56.635314	115.925355	-53.364868	-158.108190	5.812963	0.506358	20.121729	-10.087598	-29.408528	-8.841559	-28.801888	7.650216	61.589786	-4.786753	16.015745	33.832306	20.967190	16.043512	-12.988214	
5.2800	-3.674895	2.486029	11.388466	-0.101338	1.026605	0.011103	15.462170	-11.678188	36.017794	-10.402436	16.920421	-10.597750	-12.475779	-57.032022	115.691977	-54.753574	-159.273790	6.063181	0.441504	19.885787	-9.939787	-29.035945	-9.155497	-29.166677	7.435501	61.657285	-5.372585	15.917478	35.146834	20.229753	16.147210	-13.008565	
5.2900	-3.606626	2.415356	11.474549	-0.101907	1.026726	0.011272	15.309231	-11.776986	35.389657	-10.307834	16.320964	-10.305080	-13.067645	-57.466605	115.472410	-56.141021	-160.379359	6.349143	0.317613	19.652433	-9.785089	-28.669511	-9.472047	-29.523326	7.225445	61.701514	-5.980176	15.796324	36.468512	19.383854	16.198342	-12.992292	
5.3000	-3.533190	2.344707	11.551901	-0.102481	1.026842	0.011431	15.148125	-11.864748	34.756446	-10.204206	15.729681	-10.014175	-13.666191	-57.930002	115.262543	-57.531631	-161.405447	6.673142	0.140292	19.422571	-9.621501	-28.310641	-9.791496	-29.868968	7.021000	61.729263	-6.602724	15.653085	37.800078	18.463044	16.196843	-12.949240	
5.3100	-3.458220	2.270679	11.641084	-0.103058	1.026966	0.011571	14.975425	-11.960498	34.104485	-10.104124	15.134835	-9.708915	-14.282322	-58.435151	115.053053	-58.921891	-162.399187	7.028756	-0.069752	19.186469	-9.451677	-27.943101	-10.117209	-30.214581	6.811240	61.743465	-7.247630	15.484050	39.141283	17.504713	16.160545	-12.883253	
5.3200	-3.378267	2.196570	11.737945	-0.103650	1.027077	0.011707	14.803834	-12.047106	33.449260	-9.989335	14.526857	-9.407435	-14.902087	-58.961744	114.839498	-60.312894	-163.280025	7.426251	-0.318753	18.950405	-9.274879	-27.577316	-10.448799	-30.558846	6.602338	61.745927	-7.910184	15.287615	40.496593	16.574123	16.082191	-12.822527	
5.3300	-3.294634	2.118166	11.857041	-0.104255	1.027184	0.011834	14.630229	-12.131860	32.781406	-9.864467	13.899602	-9.101971	-15.536123	-59.515351	114.615931	-61.698147	-164.060903	7.866921	-0.608527	18.709321	-9.095177	-27.204273	-10.784623	-30.905059	6.388498	61.732174	-8.602099	15.064080	41.863875	15.669184	15.965636	-12.767064	
